<svg xmlns="http://www.w3.org/2000/svg" width="256" height="256" viewBox="0 0 100 100"><rect width="100" height="100" rx="20" fill="#1d8d03"></rect><path d="M28.42 85.14L28.42 85.14Q24.24 85.14 22.54 83.62Q20.85 82.09 20.85 78.48L20.85 78.48L20.85 18.25Q22.09 16.67 24.52 15.76Q26.95 14.86 29.89 14.86L29.89 14.86Q33.39 14.86 36.16 16.10Q38.93 17.34 41.07 21.07L41.07 21.07L57.34 50.34Q59.61 54.41 61.70 58.76Q63.79 63.11 65.37 66.72L65.37 66.72L65.82 66.61Q65.25 59.94 65.09 53.67Q64.92 47.40 64.92 41.30L64.92 41.30L64.92 15.65Q65.82 15.42 67.68 15.14Q69.55 14.86 71.47 14.86L71.47 14.86Q75.65 14.86 77.40 16.38Q79.15 17.91 79.15 21.52L79.15 21.52L79.15 82.54Q77.91 83.79 75.59 84.47Q73.28 85.14 70.11 85.14L70.11 85.14Q66.72 85.14 63.96 83.96Q61.19 82.77 59.04 79.04L59.04 79.04L42.77 49.77Q40.51 45.82 38.42 41.36Q36.33 36.89 34.75 33.28L34.75 33.28L34.07 33.39Q34.63 39.60 34.80 46.16Q34.97 52.71 34.97 58.59L34.97 58.59L34.97 84.24Q34.07 84.47 32.26 84.80Q30.45 85.14 28.42 85.14Z" fill="#fff"></path></svg>